<svg width="32" height="33" viewBox="0 0 32 33" fill="none" xmlns="http://www.w3.org/2000/svg">
<g clip-path="url(#clip0_244_65)">
<path fill-rule="evenodd" clip-rule="evenodd" d="M32 16.8115C32 25.6481 24.8366 32.8115 16 32.8115C7.16344 32.8115 0 25.6481 0 16.8115C0 7.97497 7.16344 0.811523 16 0.811523C24.8366 0.811523 32 7.97497 32 16.8115ZM16.5734 12.6234C15.0171 13.2707 11.9068 14.6105 7.24252 16.6426C6.48511 16.9438 6.08834 17.2385 6.05222 17.5266C5.99118 18.0135 6.60095 18.2053 7.43129 18.4664C7.54424 18.5019 7.66127 18.5387 7.78125 18.5777C8.59818 18.8432 9.6971 19.1539 10.2684 19.1662C10.7866 19.1774 11.365 18.9638 12.0035 18.5253C16.3615 15.5835 18.6112 14.0966 18.7524 14.0645C18.8521 14.0419 18.9901 14.0135 19.0837 14.0967C19.1772 14.1798 19.168 14.3373 19.1581 14.3795C19.0977 14.637 16.7042 16.8623 15.4655 18.0139C15.0793 18.3729 14.8054 18.6275 14.7494 18.6857C14.624 18.816 14.4962 18.9392 14.3733 19.0577C13.6144 19.7893 13.0452 20.338 14.4048 21.2339C15.0582 21.6645 15.581 22.0205 16.1026 22.3757C16.6722 22.7636 17.2404 23.1505 17.9755 23.6324C18.1628 23.7552 18.3416 23.8827 18.5159 24.0069C19.1788 24.4795 19.7743 24.9041 20.5101 24.8364C20.9377 24.797 21.3793 24.395 21.6036 23.196C22.1336 20.3624 23.1755 14.2228 23.4163 11.6928C23.4374 11.4712 23.4108 11.1875 23.3895 11.063C23.3682 10.9384 23.3237 10.761 23.1618 10.6297C22.9701 10.4741 22.6742 10.4413 22.5418 10.4436C21.94 10.4542 21.0167 10.7753 16.5734 12.6234Z" fill="white"/>
</g>
<defs>
<clipPath id="clip0_244_65">
<rect width="32" height="32" fill="white" transform="translate(0 0.811523)"/>
</clipPath>
</defs>
</svg>
