<svg width="32" height="33" viewBox="0 0 32 33" fill="none" xmlns="http://www.w3.org/2000/svg">
<path d="M0 32.8115L2.24933 24.5942C0.861331 22.1889 0.132 19.4622 0.133333 16.6662C0.137333 7.92486 7.25065 0.811523 15.9906 0.811523C20.232 0.812857 24.2133 2.46486 27.2079 5.46219C30.2013 8.45952 31.8493 12.4435 31.8479 16.6809C31.8439 25.4235 24.7306 32.5369 15.9906 32.5369C13.3373 32.5355 10.7226 31.8702 8.40665 30.6062L0 32.8115ZM8.79598 27.7355C11.0306 29.0622 13.164 29.8569 15.9853 29.8582C23.2493 29.8582 29.1666 23.9462 29.1706 16.6782C29.1733 9.39552 23.2839 3.49152 15.996 3.48886C8.72665 3.48886 2.81333 9.40086 2.81066 16.6675C2.80933 19.6342 3.67866 21.8555 5.13866 24.1795L3.80666 29.0435L8.79598 27.7355ZM23.9786 20.4502C23.8799 20.2849 23.6159 20.1862 23.2186 19.9875C22.8226 19.7889 20.8746 18.8302 20.5106 18.6982C20.148 18.5662 19.884 18.4995 19.6186 18.8969C19.3546 19.2929 18.5946 20.1862 18.364 20.4502C18.1333 20.7142 17.9013 20.7475 17.5053 20.5489C17.1093 20.3502 15.832 19.9329 14.3186 18.5822C13.1413 17.5315 12.3453 16.2342 12.1146 15.8369C11.884 15.4409 12.0906 15.2262 12.288 15.0289C12.4666 14.8515 12.684 14.5662 12.8826 14.3342C13.084 14.1049 13.1493 13.9395 13.2826 13.6742C13.4146 13.4102 13.3493 13.1782 13.2493 12.9795C13.1493 12.7822 12.3573 10.8315 12.028 10.0382C11.7053 9.26619 11.3786 9.37019 11.136 9.35819L10.376 9.34486C10.112 9.34486 9.68264 9.44352 9.31998 9.84086C8.95731 10.2382 7.93332 11.1955 7.93332 13.1462C7.93332 15.0969 9.35331 16.9809 9.55064 17.2449C9.74931 17.5089 12.344 21.5115 16.3186 23.2275C17.264 23.6355 18.0026 23.8795 18.5773 24.0622C19.5266 24.3635 20.3906 24.3209 21.0733 24.2195C21.8346 24.1062 23.4173 23.2609 23.7479 22.3355C24.0786 21.4089 24.0786 20.6155 23.9786 20.4502Z" fill="white"/>
</svg>
